<svg width="98" height="39" viewBox="0 0 98 39" fill="none" xmlns="http://www.w3.org/2000/svg">
<path d="M29.7422 8.7832C29.5078 11.373 28.5469 13.5938 26.8594 15.4453C25.1836 17.2852 23.5488 18.2051 21.9551 18.2051C21.3223 18.2051 20.8359 18.0059 20.4961 17.6074C20.168 17.209 20.0039 16.6992 20.0039 16.0781C20.0039 14.8008 20.4844 13.4473 21.4453 12.0176C22.4062 10.5762 23.6074 9.42773 25.0488 8.57227C26.4902 7.7168 27.7324 7.28906 28.7754 7.28906C29.4785 7.28906 30.1113 7.54102 30.6738 8.04492C31.248 8.53711 31.5352 9.2168 31.5352 10.084C31.5352 12.4863 30.4219 15.1816 28.1953 18.1699C25.9805 21.1465 23.1738 23.9121 19.7754 26.4668C16.377 29.0098 13.6699 30.2812 11.6543 30.2812C10.2598 30.2812 9.20508 29.8184 8.49023 28.8926C7.78711 27.9551 7.43555 26.877 7.43555 25.6582C7.43555 23.0215 8.78906 20.1152 11.4961 16.9395C14.2031 13.7637 17.4961 11.0566 21.375 8.81836C25.2656 6.56836 28.8398 5.44336 32.0977 5.44336C33.6211 5.44336 34.8457 5.75391 35.7715 6.375C36.6973 6.99609 37.1602 7.82227 37.1602 8.85352C37.1602 9.81445 36.7324 10.623 35.877 11.2793C35.0215 11.9238 34.0664 12.2461 33.0117 12.2461C32.8711 12.2461 32.666 12.2402 32.3965 12.2285L32.3789 12.0879H32.8887C33.9668 12.0879 34.916 11.7891 35.7363 11.1914C36.5684 10.5938 36.9844 9.81445 36.9844 8.85352C36.9844 7.83398 36.5273 7.03125 35.6133 6.44531C34.6992 5.85938 33.5508 5.56641 32.168 5.56641C28.8398 5.56641 25.4121 6.7793 21.8848 9.20508C18.3691 11.6309 15.2051 14.7422 12.3926 18.5391C9.58008 22.3242 8.17383 25.1777 8.17383 27.0996C8.17383 27.9785 8.51953 28.6992 9.21094 29.2617C9.91406 29.8242 10.6992 30.1055 11.5664 30.1055C13.6406 30.1055 16.2891 28.9102 19.5117 26.5195C22.7344 24.1289 25.5176 21.416 27.8613 18.3809C30.2168 15.3457 31.3945 12.6152 31.3945 10.1895C31.3945 9.3457 31.1309 8.68945 30.6035 8.2207C30.0762 7.74023 29.4727 7.5 28.793 7.5C27.1641 7.5 25.3242 8.53711 23.2734 10.6113C21.2227 12.6738 20.1973 14.5312 20.1973 16.1836C20.1973 16.793 20.3672 17.2617 20.707 17.5898C21.0469 17.9062 21.457 18.0645 21.9375 18.0645C22.9922 18.0645 24.1348 17.5957 25.3652 16.6582C26.6074 15.7207 27.6152 14.4844 28.3887 12.9492C29.1621 11.4023 29.5723 10.0078 29.6191 8.76562L29.7422 8.7832ZM35.9824 23.1621H37.4941L29.0566 31.5117C30.0293 31.2539 31.2656 30.709 32.7656 29.877C34.2656 29.0332 35.3848 28.2891 36.123 27.6445L37.3535 26.6074L37.4766 26.7305C35.7539 28.2422 34.084 29.4141 32.4668 30.2461C30.8613 31.0898 29.625 31.5996 28.7578 31.7754C25.9688 34.5879 23.959 36.4395 22.7285 37.3301C21.498 38.2207 20.373 38.666 19.3535 38.666C19.0488 38.666 18.8086 38.5957 18.6328 38.4551C18.457 38.3145 18.3691 38.1445 18.3691 37.9453C18.3691 37.1133 19.3594 36.0352 21.3398 34.7109C23.3203 33.3867 25.2773 32.5371 27.2109 32.1621L30.8672 28.3652L30.832 28.3125C29.0977 29.6484 27.7793 30.3164 26.877 30.3164C26.5137 30.3164 26.1973 30.1582 25.9277 29.8418C25.6699 29.5254 25.541 29.1562 25.541 28.7344C25.541 27.8906 25.9922 27.041 26.8945 26.1855C27.7969 25.3184 28.9512 24.5801 30.3574 23.9707C31.7754 23.3613 32.8945 23.0566 33.7148 23.0566C33.9961 23.0566 34.2363 23.1328 34.4355 23.2852C34.6465 23.4258 34.752 23.6074 34.752 23.8301C34.752 24.0176 34.6875 24.2812 34.5586 24.6211L35.9824 23.1621ZM26.0859 29.3672C26.0859 29.8711 26.3379 30.123 26.8418 30.123C27.8496 30.123 29.3789 29.2676 31.4297 27.5566C33.4805 25.8457 34.5059 24.6328 34.5059 23.918C34.5059 23.4609 34.2012 23.2324 33.5918 23.2324C33.0527 23.2324 32.3965 23.4668 31.623 23.9355C30.8613 24.3926 29.9531 25.0781 28.8984 25.9922C27.8438 26.9062 27.1113 27.627 26.7012 28.1543C26.291 28.6699 26.0859 29.0742 26.0859 29.3672ZM26.9473 32.4082C24.3926 33.123 22.3535 34.0781 20.8301 35.2734C19.3066 36.4805 18.5449 37.3594 18.5449 37.9102C18.5449 38.2617 18.8379 38.4375 19.4238 38.4375C20.0332 38.4375 20.6895 38.2207 21.3926 37.7871C22.084 37.3652 23.3379 36.1934 25.1543 34.2715L26.9473 32.4082ZM61.4531 26.6074L61.5762 26.7305C59.8652 28.2305 58.582 29.2148 57.7266 29.6836C56.8711 30.1523 56.0684 30.3867 55.3184 30.3867C54.7559 30.3867 54.3105 30.2109 53.9824 29.8594C53.666 29.4961 53.5078 29.1035 53.5078 28.6816C53.5078 27.8848 54.2578 26.9531 55.7578 25.8867C56.6719 25.2305 57.1289 24.7148 57.1289 24.3398C57.1289 24.0469 56.9766 23.8184 56.6719 23.6543C56.3672 23.4785 55.9922 23.3906 55.5469 23.3906C54.8203 23.3906 54.0527 23.4844 53.2441 23.6719C52.4355 23.8477 51.1699 24.2812 49.4473 24.9727L47.4434 25.834C47.1035 25.9746 46.793 26.1562 46.5117 26.3789C43.1719 28.9688 41.1445 30.2637 40.4297 30.2637C40.0664 30.2637 39.8848 30.1113 39.8848 29.8066C39.8848 29.666 39.9785 29.5137 40.166 29.3496C40.3535 29.1738 41.1855 28.6875 42.6621 27.8906C44.1387 27.0938 45.6562 26.3672 47.2148 25.7109C48.082 24.9609 48.8086 24.3105 49.3945 23.7598C49.9805 23.1973 50.9531 22.2422 52.3125 20.8945C53.6836 19.5352 54.832 18.4277 55.7578 17.5723C55.0898 17.1973 54.5332 17.0098 54.0879 17.0098C53.4082 17.0098 52.5469 17.4609 51.5039 18.3633L51.3633 18.2402C51.9141 17.666 52.5176 17.2148 53.1738 16.8867C53.8418 16.5469 54.4277 16.377 54.9316 16.377C55.5293 16.377 56.0684 16.5293 56.5488 16.834L57.4629 15.9551C58.2715 15.1816 59.1855 14.4141 60.2051 13.6523L62.5781 11.9121C62.0039 12.0059 61.5059 12.0527 61.084 12.0527C60.2168 12.0527 59.5195 11.8945 58.9922 11.5781C58.4648 11.25 58.2012 10.8457 58.2012 10.3652C58.2012 10.1543 58.248 9.95508 58.3418 9.76758C58.4355 9.58008 58.5996 9.3457 58.834 9.06445C59.0684 8.77148 59.1855 8.54297 59.1855 8.37891C59.1855 7.94531 58.8281 7.58789 58.1133 7.30664C57.3984 7.01367 56.4492 6.86719 55.2656 6.86719C52.9922 6.86719 51.0234 7.43555 49.3594 8.57227C47.707 9.69727 46.8809 10.8047 46.8809 11.8945C46.8809 12.5859 47.2324 13.1543 47.9355 13.5996C48.6504 14.0332 49.459 14.25 50.3613 14.25C52.5645 14.25 54.8086 13.3418 57.0938 11.5254L57.1641 11.6133C56.3789 12.3516 55.3359 13.0078 54.0352 13.582C52.7344 14.1445 51.4863 14.4258 50.291 14.4258C49.3066 14.4258 48.4629 14.1973 47.7598 13.7402C47.0684 13.2715 46.7227 12.6914 46.7227 12C46.7227 10.7227 47.5723 9.52148 49.2715 8.39648C50.9707 7.25977 52.9629 6.69141 55.248 6.69141C56.9121 6.69141 58.1895 6.99609 59.0801 7.60547C59.9707 8.21484 60.416 8.77734 60.416 9.29297C60.416 9.64453 60.2578 10.0078 59.9414 10.3828C59.6367 10.7461 59.4844 10.998 59.4844 11.1387C59.4844 11.6191 59.9824 11.8594 60.9785 11.8594L61.7168 11.8418C61.9746 11.8301 62.2441 11.7949 62.5254 11.7363C62.8066 11.6777 62.9531 11.6426 62.9648 11.6309L65.0391 9.94336C66.1172 9.06445 67.1953 8.29687 68.2734 7.64062C69.3633 6.97266 70.166 6.63867 70.6816 6.63867C70.9277 6.63867 71.1211 6.70313 71.2617 6.83203C71.4141 6.94922 71.4902 7.0957 71.4902 7.27148C71.4902 7.54102 71.373 7.83398 71.1387 8.15039C70.9043 8.45508 70.2949 8.88867 69.3105 9.45117C68.3262 10.0137 67.3535 10.4941 66.3926 10.8926C65.4316 11.291 64.3359 11.6074 63.1055 11.8418C62.6367 12.1934 62.0449 12.7441 61.3301 13.4941L59.8535 15.0586C59.2676 15.6797 58.5293 16.4355 57.6387 17.3262C58.4707 17.6895 59.0391 17.8711 59.3438 17.8711C59.9883 17.8711 60.8379 17.3906 61.8926 16.4297L61.9629 16.5352C60.6621 17.8945 59.5488 18.5742 58.623 18.5742C58.1895 18.5742 57.6211 18.3984 56.918 18.0469C56.2969 18.7383 54.709 20.0801 52.1543 22.0723L48.041 25.2363L48.0762 25.3418C50.3027 24.4395 51.873 23.8594 52.7871 23.6016C53.7129 23.332 54.5742 23.1973 55.3711 23.1973C56.2383 23.1973 56.8711 23.3965 57.2695 23.7949C57.6797 24.1934 57.8848 24.627 57.8848 25.0957C57.8848 25.6348 57.7207 26.1211 57.3926 26.5547C57.0645 26.9766 56.4668 27.5098 55.5996 28.1543C54.7324 28.7871 54.2988 29.2441 54.2988 29.5254C54.2988 29.7012 54.4043 29.8535 54.6152 29.9824C54.8379 30.1113 55.084 30.1758 55.3535 30.1758C56.7715 30.1758 58.8047 28.9863 61.4531 26.6074ZM63.3867 11.5781C64.3711 11.4141 65.3555 11.127 66.3398 10.7168C67.3242 10.3066 68.2734 9.83789 69.1875 9.31055C70.1133 8.7832 70.6875 8.37891 70.9102 8.09766C71.1445 7.81641 71.2617 7.55273 71.2617 7.30664C71.2617 7.02539 71.0684 6.88477 70.6816 6.88477C70.0254 6.88477 68.918 7.42383 67.3594 8.50195C65.8008 9.56836 64.4766 10.5938 63.3867 11.5781ZM69.2578 26.6074L69.3809 26.7305C68.9473 27.1406 68.502 27.3457 68.0449 27.3457C67.6699 27.3457 67.3535 27.2109 67.0957 26.9414C66.2285 27.8555 65.3027 28.623 64.3184 29.2441C63.334 29.8652 62.5137 30.1758 61.8574 30.1758C61.5176 30.1758 61.2305 30.0527 60.9961 29.8066C60.7617 29.5605 60.6445 29.2207 60.6445 28.7871C60.6445 27.791 61.0898 26.8359 61.9805 25.9219C62.8711 24.9961 63.8906 24.2812 65.0391 23.7773C66.1992 23.2617 67.1191 23.0039 67.7988 23.0039C68.4668 23.0039 68.8008 23.3203 68.8008 23.9531C68.8008 24.6094 68.2734 25.5527 67.2188 26.7832C67.4297 27.041 67.7109 27.1699 68.0625 27.1699C68.4609 27.1699 68.8594 26.9824 69.2578 26.6074ZM68.6426 23.9004C68.6426 23.6777 68.5547 23.4961 68.3789 23.3555C68.2148 23.2148 68.0273 23.1445 67.8164 23.1445C66.9258 23.1445 65.5781 24.0352 63.7734 25.8164C61.9805 27.5977 61.084 28.7754 61.084 29.3496C61.084 29.5137 61.166 29.666 61.3301 29.8066C61.4941 29.9355 61.6816 30 61.8926 30C62.3848 30 63.0879 29.748 64.002 29.2441C64.9277 28.7285 65.7363 28.1074 66.4277 27.3809C67.1309 26.6426 67.6758 25.9863 68.0625 25.4121C68.4492 24.8262 68.6426 24.3223 68.6426 23.9004ZM88.2598 13.6348L89.7012 13.6172L77.2383 26.0449C75.2461 28.0371 74.25 29.2148 74.25 29.5781C74.25 29.7305 74.3145 29.8594 74.4434 29.9648C74.584 30.0703 74.7363 30.123 74.9004 30.123C75.2402 30.123 75.7617 29.8887 76.4648 29.4199C77.1797 28.9512 78.3516 28.0137 79.9805 26.6074L80.1035 26.7305L78.6445 27.9434C77.4609 28.9277 76.6172 29.5664 76.1133 29.8594C75.6094 30.1523 75.2051 30.2988 74.9004 30.2988C74.6309 30.2988 74.3965 30.2168 74.1973 30.0527C74.0098 29.8887 73.916 29.666 73.916 29.3848C73.916 28.8105 74.25 28.084 74.918 27.2051L74.8477 27.1348C74.3555 27.6035 73.6406 28.1836 72.7031 28.875C71.7773 29.5547 71.1094 29.9648 70.6992 30.1055C70.3008 30.2461 69.9434 30.3164 69.627 30.3164C69.252 30.3164 68.959 30.1875 68.748 29.9297C68.5488 29.6719 68.4492 29.3438 68.4492 28.9453C68.4492 28.0898 68.8359 27.2344 69.6094 26.3789C70.3945 25.5117 71.4609 24.7793 72.8086 24.1816C74.1562 23.5723 75.1992 23.2676 75.9375 23.2676C76.2539 23.2676 76.5176 23.3555 76.7285 23.5312C76.9395 23.707 77.0449 23.9355 77.0449 24.2168C77.0449 24.3809 76.9746 24.6328 76.834 24.9727L88.2598 13.6348ZM76.834 24.1992C76.834 23.7188 76.5586 23.4785 76.0078 23.4785C75.0703 23.4785 73.6465 24.3105 71.7363 25.9746C69.8379 27.6387 68.8887 28.8105 68.8887 29.4902C68.8887 29.9004 69.1406 30.1055 69.6445 30.1055C70.1602 30.1055 70.6816 29.9531 71.209 29.6484C71.748 29.332 72.5684 28.752 73.6699 27.9082C74.7832 27.0527 75.5859 26.332 76.0781 25.7461C76.582 25.1484 76.834 24.6328 76.834 24.1992Z" fill="black"/>
</svg>
